<?xml version="1.0" encoding="UTF-8" standalone="no"?>
<!-- Created with Inkscape (http://www.inkscape.org/) -->

<svg
   xmlns:dc="http://purl.org/dc/elements/1.1/"
   xmlns:cc="http://creativecommons.org/ns#"
   xmlns:rdf="http://www.w3.org/1999/02/22-rdf-syntax-ns#"
   xmlns:svg="http://www.w3.org/2000/svg"
   xmlns="http://www.w3.org/2000/svg"
   xmlns:sodipodi="http://sodipodi.sourceforge.net/DTD/sodipodi-0.dtd"
   xmlns:inkscape="http://www.inkscape.org/namespaces/inkscape"
   width="200"
   height="40"
   viewBox="0 0 52.916667 10.583334"
   version="1.1"
   id="svg8"
   inkscape:version="0.92.1 r15371"
   sodipodi:docname="logo_short_fa5.svg">
  <defs
     id="defs2" />
  <sodipodi:namedview
     id="base"
     pagecolor="#ffffff"
     bordercolor="#666666"
     borderopacity="1.0"
     inkscape:pageopacity="0.0"
     inkscape:pageshadow="2"
     inkscape:zoom="7.919596"
     inkscape:cx="149.55223"
     inkscape:cy="22.647496"
     inkscape:document-units="mm"
     inkscape:current-layer="layer1"
     showgrid="false"
     inkscape:window-width="1920"
     inkscape:window-height="1057"
     inkscape:window-x="3832"
     inkscape:window-y="-8"
     inkscape:window-maximized="1"
     units="px" />
  <metadata
     id="metadata5">
    <rdf:RDF>
      <cc:Work
         rdf:about="">
        <dc:format>image/svg+xml</dc:format>
        <dc:type
           rdf:resource="http://purl.org/dc/dcmitype/StillImage" />
        <dc:title />
      </cc:Work>
    </rdf:RDF>
  </metadata>
  <g
     inkscape:label="Layer 1"
     inkscape:groupmode="layer"
     id="layer1"
     transform="translate(0,-286.41663)">
    <rect
       style="fill:#ffffff;fill-opacity:1;stroke:none;stroke-width:0.26458332"
       id="rect24"
       width="15.874963"
       height="10.583509"
       x="37.041668"
       y="286.41458" />
    <path
       inkscape:connector-curvature="0"
       id="path37"
       d="m 0,291.7063 v -5.29167 h 1.1270018 c 1.0114064,0 1.1280999,0.003 1.1377083,0.0279 0.00589,0.0154 0.010707,0.94805 0.010707,2.07267 v 2.04476 l 1.5563119,-0.005 1.5563118,-0.005 1.7867641,-1.95792 c 0.9827202,-1.07685 1.8334916,-2.00752 1.8906032,-2.06816 l 0.1038391,-0.11024 h 1.3781968 c 1.187217,0 1.376243,0.003 1.364092,0.0251 -0.0078,0.0138 -1.061194,1.12247 -2.3409683,2.46368 -1.2797748,1.34121 -2.3268634,2.44768 -2.3268634,2.45882 0,0.0111 1.0391511,1.27262 2.3092245,2.80328 1.2700732,1.53066 2.3117912,2.79414 2.3149272,2.80773 0.0049,0.021 -0.194235,0.0247 -1.33282,0.0247 -1.2908094,0 -1.339805,-0.001 -1.3745068,-0.0335 -0.019791,-0.0184 -0.903289,-1.04635 -1.9633278,-2.28424 L 5.2698575,292.42949 H 3.7726372 2.2754167 v 2.25634 c 0,1.24098 -0.00482,2.26889 -0.010707,2.28423 -0.00961,0.025 -0.1263019,0.0279 -1.1377083,0.0279 H 0 Z m 12.463762,5.26376 c -0.0059,-0.0153 -0.01071,-0.10393 -0.01071,-0.19685 0,-0.16619 0.0041,-0.1825 0.248427,-0.99956 0.148623,-0.49692 0.259815,-0.83948 0.276774,-0.85267 0.02212,-0.0172 0.324971,-0.022 1.378761,-0.0218 0.743558,1.4e-4 1.361394,0.007 1.374849,0.0157 0.01694,0.0107 0.02056,0.0309 0.01179,0.0659 -0.03459,0.13792 -0.57821,1.94316 -0.595474,1.97745 l -0.01998,0.0397 H 13.80133 c -1.193658,0 -1.327943,-0.003 -1.337575,-0.0279 z m 10.349605,0.004 c -0.02754,-0.0314 -0.958783,-2.19202 -0.958783,-2.22447 0,-0.0142 0.01786,-0.0301 0.03969,-0.0352 0.02183,-0.005 1.436688,-0.0113 3.144132,-0.0138 2.920415,-0.004 3.114379,-0.006 3.272014,-0.0366 0.460524,-0.0884 0.76227,-0.25015 0.919024,-0.49268 0.07954,-0.12306 0.114795,-0.22384 0.139119,-0.39769 0.05619,-0.40155 -0.137844,-0.68736 -0.60023,-0.88412 -0.186808,-0.0795 -0.472174,-0.15883 -0.981909,-0.27298 -0.595516,-0.13336 -0.837973,-0.20156 -1.137906,-0.32008 -1.357664,-0.53648 -1.941545,-1.25506 -1.984003,-2.44173 -0.04241,-1.18526 0.392395,-2.08413 1.304195,-2.69616 0.496727,-0.33342 1.192852,-0.57689 1.944835,-0.6802 0.380701,-0.0523 1.015096,-0.0633 3.644953,-0.0633 2.235458,4e-5 2.6233,0.004 2.631409,0.0248 0.01519,0.0396 -0.637519,2.32639 -0.671345,2.35206 -0.02293,0.0174 -0.559312,0.022 -2.544094,0.022 -1.62702,0 -2.567817,0.006 -2.66451,0.0183 -0.532491,0.0651 -0.788855,0.25702 -0.847404,0.63438 -0.04525,0.29167 0.04278,0.47236 0.285999,0.58702 0.147188,0.0694 0.277733,0.10831 0.958742,0.28589 0.700314,0.18261 1.073408,0.29788 1.404079,0.4338 0.474465,0.19502 0.895449,0.44461 1.197658,0.71006 0.736802,0.64717 1.008995,1.58234 0.78377,2.6928 -0.334473,1.64909 -1.71767,2.65299 -3.852937,2.79641 -0.531806,0.0357 -5.395343,0.037 -5.426495,10e-4 z m 14.221369,-0.004 c -0.01389,-0.0362 -0.01406,-10.4909 -1.77e-4,-10.52709 0.0095,-0.0248 0.01584,-0.0247 0.0649,6.4e-4 0.0299,0.0155 1.815049,1.20192 3.967,2.63658 l 3.91265,2.60847 h 3.940879 c 2.167484,0 3.953434,0.005 3.96878,0.0107 0.02527,0.01 0.0279,0.26 0.0279,2.65466 v 2.64394 h -7.935613 c -7.219969,0 -7.936579,-0.003 -7.946319,-0.0279 z m -23.45164,-4.0456 c -0.02097,-0.0133 0.02886,-0.19493 0.291042,-1.061 0.173992,-0.57475 0.326837,-1.05557 0.339657,-1.06851 0.01927,-0.0194 0.636573,-0.0235 3.563055,-0.0232 2.092027,1.5e-4 3.550109,0.007 3.565081,0.0163 0.02104,0.0133 -0.02621,0.19316 -0.279136,1.06247 -0.188907,0.64926 -0.315288,1.05481 -0.332974,1.06849 -0.02259,0.0175 -0.764429,0.022 -3.574963,0.0218 -2.093514,-1.6e-4 -3.556823,-0.007 -3.571762,-0.0163 z m 1.25562,-4.12262 c -0.01213,-0.005 -0.02205,-0.0257 -0.02205,-0.0462 0,-0.0486 0.649136,-2.2653 0.675941,-2.30823 0.01984,-0.0318 0.139763,-0.0328 3.938985,-0.0328 3.118665,0 3.920203,0.005 3.926757,0.022 0.01207,0.0323 -0.669748,2.34515 -0.696314,2.36201 -0.0239,0.0152 -7.785785,0.0183 -7.82332,0.003 z"
       style="fill:#e39d9d;stroke-width:0.01763889" />
    <path
       inkscape:connector-curvature="0"
       id="path35"
       d="m 0,291.70643 v -5.2918 h 1.1288889 1.1288889 v 2.08139 2.08139 l 1.5654515,-1.4e-4 1.5654514,-1.4e-4 1.8961806,-2.08032 1.8961806,-2.08033 1.3643151,-9.2e-4 1.364315,-9.3e-4 -0.05022,0.0603 c -0.02762,0.0332 -1.082093,1.14105 -2.3432732,2.46197 -1.2611806,1.32091 -2.2930556,2.41209 -2.2930556,2.42483 0,0.0127 1.0382797,1.27473 2.3072881,2.80441 1.2690087,1.52968 2.3116737,2.79267 2.3170347,2.80664 0.0084,0.022 -0.168556,0.0248 -1.319437,0.0209 l -1.3291835,-0.005 -1.9579901,-2.28423 -1.95799,-2.28424 -1.5124687,-0.005 -1.5124688,-0.005 -0.00448,2.28874 -0.00448,2.28874 -1.1244792,0.005 L 0,296.99822 Z m 12.485336,5.07243 0.0058,-0.21937 0.242392,-0.80823 0.242393,-0.80823 1.364752,-0.005 c 0.750614,-0.002 1.370094,10e-4 1.376621,0.009 0.0065,0.007 -0.124834,0.46975 -0.291916,1.02758 l -0.303786,1.01423 -1.32105,0.005 -1.32105,0.005 z m 10.339387,0.20456 c 0,-0.009 -0.213657,-0.51128 -0.474791,-1.11619 -0.261135,-0.60492 -0.47101,-1.10597 -0.46639,-1.11345 0.0046,-0.007 1.319606,-0.0136 2.922187,-0.0136 2.90731,-3e-5 3.203705,-0.005 3.533828,-0.0625 0.198813,-0.0344 0.469768,-0.12672 0.598588,-0.20384 0.309375,-0.18522 0.483983,-0.52068 0.46043,-0.88457 -0.01918,-0.2963 -0.183463,-0.50586 -0.528504,-0.67416 -0.234994,-0.11462 -0.457794,-0.18056 -1.099026,-0.32527 -0.593071,-0.13385 -0.845522,-0.20535 -1.132447,-0.32077 -1.160662,-0.46688 -1.713184,-1.02779 -1.899119,-1.92795 -0.103105,-0.49917 -0.06257,-1.20086 0.0977,-1.69131 0.151879,-0.46477 0.45629,-0.92215 0.818467,-1.22975 0.501038,-0.42554 1.188161,-0.72808 1.984492,-0.87378 0.590073,-0.10796 0.412543,-0.10259 3.610278,-0.10906 l 2.93118,-0.006 -0.01786,0.0666 c -0.09754,0.36395 -0.637811,2.2568 -0.646835,2.26621 -0.0065,0.007 -1.166744,0.0157 -2.578294,0.0197 -1.823872,0.005 -2.599627,0.0132 -2.681106,0.0276 -0.412399,0.0729 -0.622815,0.18786 -0.735745,0.40209 -0.137934,0.26167 -0.12255,0.57768 0.03578,0.73499 0.12957,0.12873 0.272461,0.18393 0.902811,0.34878 0.994345,0.26003 1.213136,0.32554 1.596046,0.47787 1.406883,0.55967 2.083507,1.42033 2.084139,2.65099 2.29e-4,0.4325 -0.05199,0.77112 -0.178114,1.15522 -0.335972,1.02315 -1.133955,1.74704 -2.3423,2.12482 -0.326348,0.10204 -0.711809,0.17875 -1.213688,0.24155 -0.313025,0.0392 -0.345401,0.0397 -2.949104,0.0458 -1.608607,0.004 -2.632604,-1.2e-4 -2.632604,-0.0101 z m 14.216945,-5.27714 v -5.29169 l 3.96872,2.64585 3.96872,2.64586 h 3.96878 3.96878 v 2.64583 2.64583 h -7.9375 -7.9375 z m -23.442084,1.1709 c 0,-0.0217 0.494877,-1.67702 0.601852,-2.01314 l 0.01825,-0.0573 h 3.551826 c 1.953506,0 3.555002,0.006 3.558879,0.0132 0.0039,0.007 -0.128997,0.47758 -0.295277,1.04511 l -0.30233,1.03187 -3.566598,0.004 c -3.281345,0.004 -3.566597,0.002 -3.566597,-0.0242 z m 1.234722,-4.11901 c 0,-0.0202 0.669337,-2.3132 0.67766,-2.32152 0.0025,-0.002 1.766442,-0.002 3.919982,-10e-6 l 3.915526,0.004 -0.323241,1.10243 c -0.177784,0.60634 -0.331428,1.13219 -0.341431,1.16858 l -0.01819,0.0661 H 18.74946 c -2.914592,0 -3.915154,-0.005 -3.915154,-0.0201 z"
       style="fill:#d15a5b;stroke-width:0.01763889" />
    <path
       inkscape:connector-curvature="0"
       id="path33"
       d="m 0,291.70643 v -5.2918 h 1.1288889 1.1288889 v 2.08139 2.08139 l 1.5654515,-1.4e-4 1.5654514,-1.4e-4 1.8961806,-2.08032 1.8961806,-2.08033 1.3643151,-9.2e-4 1.364315,-9.3e-4 -0.05022,0.0603 c -0.02762,0.0332 -1.082093,1.14105 -2.3432732,2.46197 -1.2611806,1.32091 -2.2930556,2.41209 -2.2930556,2.42483 0,0.0127 1.0382797,1.27473 2.3072881,2.80441 1.2690087,1.52968 2.3116737,2.79267 2.3170347,2.80664 0.0084,0.022 -0.168556,0.0248 -1.319437,0.0209 l -1.3291835,-0.005 -1.9579901,-2.28423 -1.95799,-2.28424 -1.5124687,-0.005 -1.5124688,-0.005 -0.00448,2.28874 -0.00448,2.28874 -1.1244792,0.005 L 0,296.99822 Z m 12.502927,5.07467 0.0058,-0.21714 0.241171,-0.80165 0.24117,-0.80164 1.353785,-0.005 c 0.992119,-0.003 1.353785,7.7e-4 1.353785,0.0153 0,0.0109 -0.131246,0.45858 -0.291658,0.99486 -0.160411,0.53628 -0.289396,0.98581 -0.286632,0.99895 0.0042,0.0199 -0.214672,0.0247 -1.309072,0.0284 l -1.314097,0.005 z m 10.338124,0.21245 c -7.23e-4,-0.002 -0.0045,-0.0203 -0.0083,-0.0397 -0.0039,-0.0194 -0.213618,-0.51368 -0.46612,-1.09839 -0.252505,-0.5847 -0.459098,-1.0706 -0.459098,-1.07977 0,-0.0104 1.163214,-0.0191 3.082395,-0.0231 2.784375,-0.006 3.098598,-0.009 3.249966,-0.0359 0.447934,-0.0789 0.711539,-0.19047 0.903686,-0.38262 0.193248,-0.19325 0.291689,-0.45848 0.273808,-0.73774 -0.01359,-0.21227 -0.06467,-0.32211 -0.223267,-0.48013 -0.108104,-0.10771 -0.166421,-0.14919 -0.301588,-0.21452 -0.198482,-0.0959 -0.463153,-0.18146 -0.80257,-0.2594 -1.027606,-0.23596 -1.145265,-0.26873 -1.524164,-0.42448 -1.123668,-0.46189 -1.656166,-1.03429 -1.821397,-1.95786 -0.04738,-0.26485 -0.05079,-0.79696 -0.0069,-1.08181 0.220169,-1.42969 1.237797,-2.32219 2.999701,-2.63086 0.217888,-0.0382 0.594355,-0.0793 0.727605,-0.0795 0.06162,-10e-5 0.110243,-0.008 0.110243,-0.0178 0,-0.0117 0.94791,-0.0175 2.808993,-0.0174 1.544946,1.5e-4 2.800553,0.006 2.790239,0.0132 -0.01031,0.007 -0.159448,0.51302 -0.331406,1.12421 -0.171958,0.61118 -0.320114,1.12911 -0.329235,1.15093 l -0.01658,0.0397 h -2.414345 c -1.505403,0 -2.499977,0.007 -2.641803,0.0182 -0.435248,0.0349 -0.677296,0.12137 -0.84395,0.30137 -0.137237,0.14824 -0.174988,0.25545 -0.176255,0.50059 -0.0011,0.22338 0.02321,0.29001 0.146856,0.40172 0.142577,0.12881 0.277838,0.17664 1.110788,0.39276 1.495106,0.38793 2.151784,0.69218 2.719384,1.25993 0.372343,0.37244 0.564888,0.72305 0.678359,1.23524 0.03926,0.17723 0.05559,0.73171 0.02837,0.96323 -0.188685,1.60454 -1.239861,2.63305 -3.061976,2.99598 -0.255021,0.0508 -0.749892,0.11538 -0.884073,0.11538 -0.05333,0 -0.09284,0.007 -0.08779,0.0149 0.01749,0.0283 -0.746653,0.0381 -2.982096,0.0381 -1.235365,0 -2.246704,-0.002 -2.247426,-0.004 z m 14.200617,-5.28727 v -5.29169 l 3.946701,2.63007 c 2.170686,1.44655 3.955553,2.6412 3.966369,2.65479 0.01678,0.0211 0.602811,0.024 3.990799,0.0202 l 3.971131,-0.005 v 2.64142 2.64142 h -7.9375 -7.9375 z m -23.424445,1.16606 c 0,-0.014 0.395667,-1.32733 0.557195,-1.84955 l 0.06138,-0.19844 h 3.535991 c 2.365177,0 3.53599,0.006 3.53599,0.0178 0,0.0215 -0.581478,2.01307 -0.593402,2.03237 -0.01198,0.0194 -7.097153,0.0172 -7.097153,-0.002 z m 1.234722,-4.11781 c 0,-0.003 0.150634,-0.52032 0.334743,-1.14885 0.184108,-0.62853 0.330483,-1.14968 0.325278,-1.1581 -0.0053,-0.009 1.702864,-0.0152 3.92064,-0.015 2.161556,1.5e-4 3.921022,0.006 3.909924,0.0132 -0.0111,0.007 -0.164255,0.50508 -0.340348,1.10657 -0.176094,0.60148 -0.328363,1.11941 -0.338377,1.15094 l -0.01821,0.0573 h -3.896827 c -2.143254,0 -3.896826,-0.003 -3.896826,-0.006 z"
       style="fill:#41638b;stroke-width:0.01763889" />
    <path
       inkscape:connector-curvature="0"
       id="path31"
       d="m 12.502927,296.7811 0.0058,-0.21714 0.241171,-0.80165 0.24117,-0.80164 1.353785,-0.005 c 0.992119,-0.003 1.353785,7.7e-4 1.353785,0.0153 0,0.0109 -0.131246,0.45858 -0.291658,0.99486 -0.160411,0.53628 -0.289396,0.98581 -0.286632,0.99895 0.0042,0.0199 -0.214672,0.0247 -1.309072,0.0284 l -1.314097,0.005 z m 10.338124,0.21245 c -7.23e-4,-0.002 -0.0045,-0.0203 -0.0083,-0.0397 -0.0039,-0.0194 -0.213618,-0.51368 -0.46612,-1.09839 -0.252505,-0.5847 -0.459098,-1.0706 -0.459098,-1.07977 0,-0.0104 1.163214,-0.0191 3.082395,-0.0231 2.784375,-0.006 3.098598,-0.009 3.249966,-0.0359 0.447934,-0.0789 0.711539,-0.19047 0.903686,-0.38262 0.193248,-0.19325 0.291689,-0.45848 0.273808,-0.73774 -0.01359,-0.21227 -0.06467,-0.32211 -0.223267,-0.48013 -0.108104,-0.10771 -0.166421,-0.14919 -0.301588,-0.21452 -0.198482,-0.0959 -0.463153,-0.18146 -0.80257,-0.2594 -1.027606,-0.23596 -1.145265,-0.26873 -1.524164,-0.42448 -1.123668,-0.46189 -1.656166,-1.03429 -1.821397,-1.95786 -0.04738,-0.26485 -0.05079,-0.79696 -0.0069,-1.08181 0.220169,-1.42969 1.237797,-2.32219 2.999701,-2.63086 0.217888,-0.0382 0.594355,-0.0793 0.727605,-0.0795 0.06162,-10e-5 0.110243,-0.008 0.110243,-0.0178 0,-0.0117 0.94791,-0.0175 2.808993,-0.0174 1.544946,1.5e-4 2.800553,0.006 2.790239,0.0132 -0.01031,0.007 -0.159448,0.51302 -0.331406,1.12421 -0.171958,0.61118 -0.320114,1.12911 -0.329235,1.15093 l -0.01658,0.0397 h -2.414345 c -1.505403,0 -2.499977,0.007 -2.641803,0.0182 -0.435248,0.0349 -0.677296,0.12137 -0.84395,0.30137 -0.137237,0.14824 -0.174988,0.25545 -0.176255,0.50059 -0.0011,0.22338 0.02321,0.29001 0.146856,0.40172 0.142577,0.12881 0.277838,0.17664 1.110788,0.39276 1.495106,0.38793 2.151784,0.69218 2.719384,1.25993 0.372343,0.37244 0.564888,0.72305 0.678359,1.23524 0.03926,0.17723 0.05559,0.73171 0.02837,0.96323 -0.188685,1.60454 -1.239861,2.63305 -3.061976,2.99598 -0.255021,0.0508 -0.749892,0.11538 -0.884073,0.11538 -0.05333,0 -0.09284,0.007 -0.08779,0.0149 0.01749,0.0283 -0.746653,0.0381 -2.982096,0.0381 -1.235365,0 -2.246704,-0.002 -2.247426,-0.004 z m 14.200617,-0.0132 c 0,-0.01 0.0079,-0.0176 0.01764,-0.0176 0.01172,0 0.01764,-1.75801 0.01764,-5.23875 0,-2.88132 0.004,-5.23875 0.0089,-5.23875 0.0049,0 1.77694,1.17876 3.937882,2.61947 l 3.928985,2.61948 3.98198,-0.005 3.981979,-0.005 v 2.64142 2.64142 h -7.9375 c -5.279907,0 -7.9375,-0.006 -7.9375,-0.0176 z M 0,291.69748 v -5.28285 h 1.1156598 1.1156597 l -0.00463,2.0645 c -0.00317,1.4135 0.0012,2.0754 0.01385,2.09903 0.018127,0.0339 0.04789,0.0345 1.5755254,0.0345 1.219073,0 1.5630763,-0.005 1.5848141,-0.022 0.044923,-0.0357 3.7321925,-4.08315 3.7640161,-4.13172 l 0.02902,-0.0443 1.3605749,10e-4 c 1.059443,8.1e-4 1.353358,0.006 1.327963,0.0221 -0.06158,0.0397 -4.6769693,4.88647 -4.6823954,4.91716 -0.00344,0.0194 0.8322148,1.0403 2.2785155,2.78353 1.2561669,1.51406 2.2944519,2.76765 2.3072999,2.78577 0.01285,0.0181 0.03527,0.0375 0.04982,0.0431 0.01455,0.006 -0.574808,0.0109 -1.309688,0.0116 -0.7348795,7.7e-4 -1.3343261,-0.005 -1.3321027,-0.0118 0.00222,-0.007 -0.8748857,-1.03915 -1.9491309,-2.29305 l -1.953172,-2.27984 H 3.7662052 2.240811 l -0.00961,0.0397 c -0.00529,0.0218 -0.00742,1.0537 -0.00475,2.29306 l 0.00487,2.25337 -1.1156597,-1e-5 H 1.5e-6 Z m 13.617223,1.17486 c 0,-0.014 0.395667,-1.32733 0.557195,-1.84955 l 0.06138,-0.19844 h 3.535991 c 2.365177,0 3.53599,0.006 3.53599,0.0178 0,0.0215 -0.581478,2.01307 -0.593402,2.03237 -0.01198,0.0194 -7.097153,0.0172 -7.097153,-0.002 z m 1.234722,-4.11781 c 0,-0.003 0.150634,-0.52032 0.334743,-1.14885 0.184108,-0.62853 0.330483,-1.14968 0.325278,-1.1581 -0.0053,-0.009 1.702864,-0.0152 3.92064,-0.015 2.161556,1.5e-4 3.921022,0.006 3.909924,0.0132 -0.0111,0.007 -0.164255,0.50508 -0.340348,1.10657 -0.176094,0.60148 -0.328363,1.11941 -0.338377,1.15094 l -0.01821,0.0573 h -3.896827 c -2.143254,0 -3.896826,-0.003 -3.896826,-0.006 z"
       style="fill:#c02121;stroke-width:0.01763889" />
    <path
       inkscape:connector-curvature="0"
       id="path29"
       d="m 37.041668,296.97836 c 0,-0.0107 0.0099,-0.0156 0.02205,-0.011 0.01761,0.007 0.02115,-1.04638 0.01758,-5.23686 -0.0025,-2.88493 -4.6e-4,-5.24532 0.0044,-5.24532 0.0142,0 7.836067,5.21726 7.845756,5.23319 0.0048,0.008 -1.753235,1.1889 -3.906761,2.62443 -2.153527,1.43553 -3.906244,2.61314 -3.894925,2.61692 0.01132,0.004 1.784058,-1.16877 3.939421,-2.60565 l 3.91884,-2.61251 h 3.946661 c 2.619349,0 3.946661,-0.006 3.946661,-0.0176 0,-0.01 0.0079,-0.0176 0.01764,-0.0176 0.01168,0 0.01764,0.89371 0.01764,2.64587 v 2.64587 l -7.9375,-1.2e-4 c -5.77227,-9e-5 -7.9375,-0.005 -7.9375,-0.0196 z M 0,291.69748 v -5.28285 h 1.1156598 1.1156597 l -0.00463,2.0645 c -0.00317,1.4135 0.0012,2.0754 0.01385,2.09903 0.018127,0.0339 0.04789,0.0345 1.5755254,0.0345 1.219073,0 1.5630763,-0.005 1.5848141,-0.022 0.044923,-0.0357 3.7321925,-4.08315 3.7640161,-4.13172 l 0.02902,-0.0443 1.3605749,10e-4 c 1.059443,8.1e-4 1.353358,0.006 1.327963,0.0221 -0.06158,0.0397 -4.6769693,4.88647 -4.6823954,4.91716 -0.00344,0.0194 0.8322148,1.0403 2.2785155,2.78353 1.2561669,1.51406 2.2944519,2.76765 2.3072999,2.78577 0.01285,0.0181 0.03527,0.0375 0.04982,0.0431 0.01455,0.006 -0.574808,0.0109 -1.309688,0.0116 -0.7348795,7.7e-4 -1.3343261,-0.005 -1.3321027,-0.0118 0.00222,-0.007 -0.8748857,-1.03915 -1.9491309,-2.29305 l -1.953172,-2.27984 H 3.7662052 2.240811 l -0.00961,0.0397 c -0.00529,0.0218 -0.00742,1.0537 -0.00475,2.29306 l 0.00487,2.25337 -1.1156597,-1e-5 H 1.5e-6 Z"
       style="fill:#d51319;stroke-width:0.01763889" />
    <path
       inkscape:connector-curvature="0"
       id="path27"
       d="m 37.041668,296.98033 c 0,-0.01 0.0079,-0.0176 0.01764,-0.0176 0.01172,0 0.01764,-1.75801 0.01764,-5.23875 0,-2.88132 0.004,-5.23875 0.0088,-5.23875 0.01417,0 7.836038,5.2173 7.845691,5.23319 0.0048,0.008 -1.768439,1.19905 -3.940542,2.64698 -2.172102,1.44794 -3.949276,2.62467 -3.949276,2.61497 z M 0,291.69748 v -5.28285 h 1.1156598 1.1156597 l -0.00463,2.0645 c -0.00317,1.4135 0.0012,2.0754 0.01385,2.09903 0.018127,0.0339 0.04789,0.0345 1.5755254,0.0345 1.219073,0 1.5630763,-0.005 1.5848141,-0.022 0.044923,-0.0357 3.7321925,-4.08315 3.7640161,-4.13172 l 0.02902,-0.0443 1.3605749,10e-4 c 1.059443,8.1e-4 1.353358,0.006 1.327963,0.0221 -0.06158,0.0397 -4.6769693,4.88647 -4.6823954,4.91716 -0.00344,0.0194 0.8322148,1.0403 2.2785155,2.78353 1.2561669,1.51406 2.2944519,2.76765 2.3072999,2.78577 0.01285,0.0181 0.03527,0.0375 0.04982,0.0431 0.01455,0.006 -0.574808,0.0109 -1.309688,0.0116 -0.7348795,7.7e-4 -1.3343261,-0.005 -1.3321027,-0.0118 0.00222,-0.007 -0.8748857,-1.03915 -1.9491309,-2.29305 l -1.953172,-2.27984 H 3.7662052 2.240811 l -0.00961,0.0397 c -0.00529,0.0218 -0.00742,1.0537 -0.00475,2.29306 l 0.00487,2.25337 -1.1156597,-1e-5 H 1.5e-6 Z"
       style="fill:#10437c;stroke-width:0.01763889" />
    <path
       inkscape:connector-curvature="0"
       id="path25"
       d="m 0,291.69748 v -5.28285 h 1.1156598 1.1156597 l -0.00463,2.0645 c -0.00317,1.4135 0.0012,2.0754 0.01385,2.09903 0.018127,0.0339 0.04789,0.0345 1.5755254,0.0345 1.219073,0 1.5630763,-0.005 1.5848141,-0.022 0.044923,-0.0357 3.7321925,-4.08315 3.7640161,-4.13172 l 0.02902,-0.0443 1.3605749,10e-4 c 1.059443,8.1e-4 1.353358,0.006 1.327963,0.0221 -0.06158,0.0397 -4.6769693,4.88647 -4.6823954,4.91716 -0.00344,0.0194 0.8322148,1.0403 2.2785155,2.78353 1.2561669,1.51406 2.2944519,2.76765 2.3072999,2.78577 0.01285,0.0181 0.03527,0.0375 0.04982,0.0431 0.01455,0.006 -0.574808,0.0109 -1.309688,0.0116 -0.7348795,7.7e-4 -1.3343261,-0.005 -1.3321027,-0.0118 0.00222,-0.007 -0.8748857,-1.03915 -1.9491309,-2.29305 l -1.953172,-2.27984 H 3.7662052 2.240811 l -0.00961,0.0397 c -0.00529,0.0218 -0.00742,1.0537 -0.00475,2.29306 l 0.00487,2.25337 -1.1156597,-1e-5 H 1.5e-6 Z m 37.086647,5.24965 c 0.03529,-0.0327 7.809592,-5.2086 7.83708,-5.21765 0.01594,-0.005 -1.739087,1.17008 -3.900062,2.61183 -2.160974,1.44176 -3.934609,2.62138 -3.94141,2.62138 -0.0068,0 -0.0048,-0.007 0.0044,-0.0156 z"
       style="fill:#222e4a;stroke-width:0.01763889" />
    <rect
       style="fill:none;fill-opacity:1;stroke:#4d4d4d;stroke-width:0.25917953"
       id="rect15"
       width="15.61582"
       height="10.324154"
       x="37.171257"
       y="286.54623" />
  </g>
</svg>
