<?xml version="1.0" encoding="UTF-8" standalone="no"?>
<!-- Created with Inkscape (http://www.inkscape.org/) -->

<svg
   width="40"
   height="40"
   viewBox="0 0 40 40"
   version="1.1"
   id="svg8"
   inkscape:version="1.3.2 (091e20e, 2023-11-25, custom)"
   sodipodi:docname="kfs-logo.svg"
   xmlns:inkscape="http://www.inkscape.org/namespaces/inkscape"
   xmlns:sodipodi="http://sodipodi.sourceforge.net/DTD/sodipodi-0.dtd"
   xmlns="http://www.w3.org/2000/svg"
   xmlns:svg="http://www.w3.org/2000/svg"
   xmlns:rdf="http://www.w3.org/1999/02/22-rdf-syntax-ns#"
   xmlns:cc="http://creativecommons.org/ns#"
   xmlns:dc="http://purl.org/dc/elements/1.1/">
  <defs
     id="defs2" />
  <sodipodi:namedview
     id="base"
     pagecolor="#ffffff"
     bordercolor="#666666"
     borderopacity="1.0"
     inkscape:pageopacity="0.0"
     inkscape:pageshadow="2"
     inkscape:zoom="16"
     inkscape:cx="23.78125"
     inkscape:cy="19.9375"
     inkscape:document-units="px"
     inkscape:current-layer="layer1"
     showgrid="false"
     inkscape:window-width="2029"
     inkscape:window-height="1212"
     inkscape:window-x="2217"
     inkscape:window-y="114"
     inkscape:window-maximized="0"
     units="px"
     inkscape:showpageshadow="2"
     inkscape:pagecheckerboard="0"
     inkscape:deskcolor="#d1d1d1"
     showguides="true" />
  <metadata
     id="metadata5">
    <rdf:RDF>
      <cc:Work
         rdf:about="">
        <dc:format>image/svg+xml</dc:format>
        <dc:type
           rdf:resource="http://purl.org/dc/dcmitype/StillImage" />
      </cc:Work>
    </rdf:RDF>
  </metadata>
  <g
     inkscape:label="Layer 1"
     inkscape:groupmode="layer"
     id="layer1"
     transform="translate(0,-286.41663)">
    <g
       id="g6">
      <rect
         style="display:inline;fill:#ffffff;fill-opacity:1;stroke:none;stroke-width:0.264583"
         id="rect24"
         width="15.874963"
         height="10.583509"
         x="37.041668"
         y="286.41458" />
      <path
         style="display:inline;fill:#c02121;stroke-width:0.0176389"
         d="m 37.07532,291.7192 15.841354,-0.005 v 2.64142 2.64142 h -7.9375 c -5.279907,0 -7.9375,-0.006 -7.9375,-0.0176 l -6e-6,9.1e-4 c 0,-0.01 0.0079,-0.0176 0.01764,-0.0176"
         id="path2"
         sodipodi:nodetypes="ccccsccc" />
      <path
         inkscape:connector-curvature="0"
         id="path33"
         d="m 37.041668,286.41459 c 2.636824,1.76288 5.284356,3.50991 7.91307,5.28486 l -7.91307,5.29804 z"
         style="display:inline;fill:#41638b;stroke-width:0.0176389"
         sodipodi:nodetypes="cccc" />
      <rect
         style="display:inline;fill:none;fill-opacity:1;stroke:#4d4d4d;stroke-width:0.25918"
         id="rect15"
         width="15.61582"
         height="10.324154"
         x="37.171257"
         y="286.54623" />
    </g>
    <g
       id="g5">
      <g
         id="FS">
        <title
           id="title4">fs</title>
        <path
           style="display:inline;fill:#c02121;stroke-width:0.0176389"
           d="m 14.851945,288.75453 c 0,-0.003 0.150634,-0.52032 0.334743,-1.14885 0.184108,-0.62853 0.330483,-1.14968 0.325278,-1.1581 -0.0053,-0.009 1.702864,-0.0152 3.92064,-0.015 2.161556,1.5e-4 3.921022,0.006 3.909924,0.0132 -0.0111,0.007 -0.164255,0.50508 -0.340348,1.10657 -0.176094,0.60148 -0.328363,1.11941 -0.338377,1.15094 l -0.01821,0.0573 h -3.896827 c -2.143254,0 -3.896826,-0.003 -3.896826,-0.006 z"
           id="path4" />
        <path
           style="display:inline;fill:#c02121;stroke-width:0.0176389"
           d="m 13.617223,292.87234 c 0,-0.014 0.395667,-1.32733 0.557195,-1.84955 l 0.06138,-0.19844 h 3.535991 c 2.365177,0 3.53599,0.006 3.53599,0.0178 0,0.0215 -0.581478,2.01307 -0.593402,2.03237 -0.01198,0.0194 -7.097153,0.0172 -7.097153,-0.002 z"
           id="path3" />
        <path
           style="display:inline;fill:#c02121;stroke-width:0.0176389"
           d="m 22.841051,296.99355 c -7.23e-4,-0.002 -0.0045,-0.0203 -0.0083,-0.0397 -0.0039,-0.0194 -0.213618,-0.51368 -0.46612,-1.09839 -0.252505,-0.5847 -0.459098,-1.0706 -0.459098,-1.07977 0,-0.0104 1.163214,-0.0191 3.082395,-0.0231 2.784375,-0.006 3.098598,-0.009 3.249966,-0.0359 0.447934,-0.0789 0.711539,-0.19047 0.903686,-0.38262 0.193248,-0.19325 0.291689,-0.45848 0.273808,-0.73774 -0.01359,-0.21227 -0.06467,-0.32211 -0.223267,-0.48013 -0.108104,-0.10771 -0.166421,-0.14919 -0.301588,-0.21452 -0.198482,-0.0959 -0.463153,-0.18146 -0.80257,-0.2594 -1.027606,-0.23596 -1.145265,-0.26873 -1.524164,-0.42448 -1.123668,-0.46189 -1.656166,-1.03429 -1.821397,-1.95786 -0.04738,-0.26485 -0.05079,-0.79696 -0.0069,-1.08181 0.220169,-1.42969 1.237797,-2.32219 2.999701,-2.63086 0.217888,-0.0382 0.594355,-0.0793 0.727605,-0.0795 0.06162,-10e-5 0.110243,-0.008 0.110243,-0.0178 0,-0.0117 0.94791,-0.0175 2.808993,-0.0174 1.544946,1.5e-4 2.800553,0.006 2.790239,0.0132 -0.01031,0.007 -0.159448,0.51302 -0.331406,1.12421 -0.171958,0.61118 -0.320114,1.12911 -0.329235,1.15093 l -0.01658,0.0397 h -2.414345 c -1.505403,0 -2.499977,0.007 -2.641803,0.0182 -0.435248,0.0349 -0.677296,0.12137 -0.84395,0.30137 -0.137237,0.14824 -0.174988,0.25545 -0.176255,0.50059 -0.0011,0.22338 0.02321,0.29001 0.146856,0.40172 0.142577,0.12881 0.277838,0.17664 1.110788,0.39276 1.495106,0.38793 2.151784,0.69218 2.719384,1.25993 0.372343,0.37244 0.564888,0.72305 0.678359,1.23524 0.03926,0.17723 0.05559,0.73171 0.02837,0.96323 -0.188685,1.60454 -1.239861,2.63305 -3.061976,2.99598 -0.255021,0.0508 -0.749892,0.11538 -0.884073,0.11538 -0.05333,0 -0.09284,0.007 -0.08779,0.0149 0.01749,0.0283 -0.746653,0.0381 -2.982096,0.0381 -1.235365,0 -2.246704,-0.002 -2.247426,-0.004 z"
           id="path1" />
        <path
           style="display:inline;fill:#c02121;stroke-width:0.0176389"
           d="m 12.502927,296.7811 0.0058,-0.21714 0.241171,-0.80165 0.24117,-0.80164 1.353785,-0.005 c 0.992119,-0.003 1.353785,7.7e-4 1.353785,0.0153 0,0.0109 -0.131246,0.45858 -0.291658,0.99486 -0.160411,0.53628 -0.289396,0.98581 -0.286632,0.99895 0.0042,0.0199 -0.214672,0.0247 -1.309072,0.0284 l -1.314097,0.005 z"
           id="path31" />
      </g>
      <path
         inkscape:connector-curvature="0"
         id="path27"
         d="m 0,291.69748 v -5.28285 h 1.1156598 1.1156597 l -0.00463,2.0645 c -0.00317,1.4135 0.0012,2.0754 0.01385,2.09903 0.018127,0.0339 0.04789,0.0345 1.5755254,0.0345 1.219073,0 1.5630763,-0.005 1.5848141,-0.022 0.044923,-0.0357 3.7321925,-4.08315 3.7640161,-4.13172 l 0.02902,-0.0443 1.3605749,10e-4 c 1.059443,8.1e-4 1.353358,0.006 1.327963,0.0221 -0.06158,0.0397 -4.6769693,4.88647 -4.6823954,4.91716 -0.00344,0.0194 0.8322148,1.0403 2.2785155,2.78353 1.2561669,1.51406 2.2944519,2.76765 2.3072999,2.78577 0.01285,0.0181 0.03527,0.0375 0.04982,0.0431 0.01455,0.006 -0.574808,0.0109 -1.309688,0.0116 -0.7348795,7.7e-4 -1.3343261,-0.005 -1.3321027,-0.0118 0.00222,-0.007 -0.8748857,-1.03915 -1.9491309,-2.29305 l -1.953172,-2.27984 H 3.7662052 2.240811 l -0.00961,0.0397 c -0.00529,0.0218 -0.00742,1.0537 -0.00475,2.29306 l 0.00487,2.25337 -1.1156597,-1e-5 H 1.5e-6 Z"
         style="display:inline;fill:#10437c;stroke-width:0.0176389"
         sodipodi:nodetypes="ccccscsccccccscccccccccccccc" />
    </g>
  </g>
</svg>
